<?xml version="1.0" standalone="no"?>
<!DOCTYPE svg PUBLIC "-//W3C//DTD SVG 20010904//EN"
 "http://www.w3.org/TR/2001/REC-SVG-20010904/DTD/svg10.dtd">
<svg version="1.0" xmlns="http://www.w3.org/2000/svg"
 width="512.000000pt" height="512.000000pt" viewBox="0 0 512.000000 512.000000"
 preserveAspectRatio="xMidYMid meet">
<metadata>
Created by potrace 1.11, written by Peter Selinger 2001-2013
</metadata>
<g transform="translate(0.000000,512.000000) scale(0.100000,-0.100000)"
fill="#000000" stroke="none">
<path d="M415 5110 c-197 -41 -349 -188 -400 -385 -13 -52 -15 -307 -15 -2165
0 -2303 -4 -2154 57 -2280 38 -78 151 -189 233 -228 36 -16 92 -35 124 -41 84
-15 4208 -15 4292 0 97 18 180 64 260 143 76 76 114 142 139 242 14 54 15 300
13 2190 l-3 2129 -23 59 c-30 81 -73 144 -135 203 -63 59 -106 86 -183 116
l-59 22 -2130 1 c-1172 1 -2148 -2 -2170 -6z m2641 -919 c17 -10 41 -34 52
-53 72 -117 171 -601 257 -1258 72 -551 121 -829 210 -1181 77 -309 146 -486
220 -568 41 -45 42 -50 13 -86 -48 -61 -299 -137 -458 -139 -83 -1 -102 3
-145 24 -62 31 -77 57 -110 188 -47 184 -90 473 -159 1067 -12 100 -19 133
-33 142 -13 10 -116 13 -478 11 l-460 -3 -17 -85 c-30 -150 -41 -312 -30 -453
9 -112 14 -136 41 -192 37 -75 107 -141 159 -151 19 -4 63 -2 96 4 80 15 90 6
87 -82 -4 -135 -72 -271 -167 -334 -191 -127 -412 -134 -543 -16 -140 125
-190 413 -134 764 22 141 95 419 140 537 4 10 -25 13 -127 13 -72 0 -140 5
-151 10 -24 13 -25 59 -3 103 39 76 91 142 133 168 43 28 51 29 160 29 l116 0
91 188 c227 464 535 921 766 1136 87 82 245 192 313 219 55 22 123 21 161 -2z"/>
<path d="M2616 3589 c-36 -28 -212 -264 -291 -391 -102 -161 -265 -493 -265
-538 0 -6 147 -10 400 -10 354 0 400 2 408 16 16 28 -88 687 -130 824 -37 121
-65 144 -122 99z"/>
</g>
</svg>
